<svg xmlns="http://www.w3.org/2000/svg" width="134.68" height="97.209" viewBox="0 0 134.68 97.209">
  <g id="Group_70" data-name="Group 70" transform="translate(-439.32 -369.791)">
    <g id="Group_6" data-name="Group 6">
      <g id="Polygon_1" data-name="Polygon 1" transform="translate(509 392) rotate(90)" fill="#217029">
        <path d="M 56.67691802978516 50.5 L 4.323085784912109 50.5 L 30.50000190734863 5.012243747711182 L 56.67691802978516 50.5 Z" stroke="none"/>
        <path d="M 30.50000190734863 10.02449417114258 L 8.646171569824219 48 L 52.35383224487305 48 L 30.50000190734863 10.02449417114258 M 30.50000190734863 0 L 61 53 L 3.814697265625e-06 53 L 30.50000190734863 0 Z" stroke="none" fill="#09fc07"/>
      </g>
      <g id="Polygon_2" data-name="Polygon 2" transform="translate(506 453) rotate(-90)" fill="#217029">
        <path d="M 56.67691802978516 50.5 L 4.323085784912109 50.5 L 30.50000190734863 5.012243747711182 L 56.67691802978516 50.5 Z" stroke="none"/>
        <path d="M 30.50000190734863 10.02449417114258 L 8.646171569824219 48 L 52.35383224487305 48 L 30.50000190734863 10.02449417114258 M 30.50000190734863 0 L 61 53 L 3.814697265625e-06 53 L 30.50000190734863 0 Z" stroke="none" fill="#09fc07"/>
      </g>
      <text id="T" transform="translate(493 424)" fill="#09fc07" font-size="50" font-family="HelveticaNeue, Helvetica Neue"><tspan x="0" y="0">T</tspan></text>
    </g>
    <g id="Group_7" data-name="Group 7">
      <g id="Group_2" data-name="Group 2" transform="translate(1012 833) rotate(180)">
        <line id="Line_1" data-name="Line 1" x2="14.5" transform="translate(438.5 367.5)" fill="none" stroke="#fff" stroke-width="3"/>
        <line id="Line_2" data-name="Line 2" y2="13.5" transform="translate(439.5 366.5)" fill="none" stroke="#fff" stroke-width="3"/>
      </g>
      <g id="Group_4" data-name="Group 4" transform="translate(573.5 390.395) rotate(180)">
        <line id="Line_1-2" data-name="Line 1" x2="14.5" transform="translate(0 19.105)" fill="none" stroke="#fff" stroke-width="3"/>
        <line id="Line_2-2" data-name="Line 2" y1="20.105" transform="translate(1)" fill="none" stroke="#fff" stroke-width="3"/>
      </g>
      <g id="Group_5" data-name="Group 5" transform="translate(439.82 370.291)">
        <line id="Line_1-3" data-name="Line 1" x2="19.023" transform="translate(0 1)" fill="none" stroke="#fff" stroke-width="3"/>
        <line id="Line_2-3" data-name="Line 2" y2="20.105" transform="translate(1)" fill="none" stroke="#fff" stroke-width="3"/>
      </g>
      <g id="Group_3" data-name="Group 3" transform="translate(439.82 453)">
        <line id="Line_1-4" data-name="Line 1" x2="16.18" transform="translate(0 12.5)" fill="none" stroke="#fff" stroke-width="3"/>
        <line id="Line_2-4" data-name="Line 2" y1="13.5" transform="translate(1)" fill="none" stroke="#fff" stroke-width="3"/>
      </g>
    </g>
  </g>
</svg>
