<svg xmlns="http://www.w3.org/2000/svg" width="184" height="73.999" viewBox="0 0 184 73.999">
  <g id="Group_31" data-name="Group 31" transform="translate(0 0)">
    <g id="Union_1" data-name="Union 1" transform="translate(0 0)" fill="#2d91ff">
      <path d="M 183.0005187988281 21.99951171875 L 1.000013709068298 21.99951171875 L 1.000013709068298 8.000202178955078 L 7.118108749389648 8.000202178955078 L 8.118108749389648 8.000202178955078 L 8.118108749389648 7.000202655792236 L 8.118108749389648 1.000012040138245 L 18.38420486450195 1.000012040138245 L 18.38420486450195 7.000202655792236 L 18.38420486450195 8.000202178955078 L 19.38420486450195 8.000202178955078 L 165.1103973388672 8.000202178955078 L 166.1103973388672 8.000202178955078 L 166.1103973388672 7.000202655792236 L 166.1103973388672 1.000012040138245 L 176.3765106201172 1.000012040138245 L 176.3765106201172 7.000202655792236 L 176.3765106201172 8.000202178955078 L 177.3765106201172 8.000202178955078 L 183.0005187988281 8.000202178955078 L 183.0005187988281 21.99951171875 Z" stroke="none"/>
      <path d="M 9.11810302734375 2 L 9.11810302734375 9.000200271606445 L 2 9.000200271606445 L 2 20.9995002746582 L 182.0005035400391 20.9995002746582 L 182.0005035400391 9.000200271606445 L 175.3764953613281 9.000200271606445 L 175.3764953613281 2 L 167.1103973388672 2 L 167.1103973388672 9.000200271606445 L 17.38420104980469 9.000200271606445 L 17.38420104980469 2 L 9.11810302734375 2 M 7.11810302734375 0 L 19.38420104980469 0 L 19.38420104980469 7.000200271606445 L 165.1103973388672 7.000200271606445 L 165.1103973388672 0 L 177.3764953613281 0 L 177.3764953613281 7.000200271606445 L 184.0005035400391 7.000200271606445 L 184.0005035400391 22.9995002746582 L 0 22.9995002746582 L 0 7.000200271606445 L 7.11810302734375 7.000200271606445 L 7.11810302734375 0 Z" stroke="none" fill="#0e0e0e"/>
    </g>
    <g id="Rectangle_31" data-name="Rectangle 31" transform="translate(0 20)" fill="#2d91ff" stroke="#0e0e0e" stroke-width="2">
      <rect width="184" height="16" stroke="none"/>
      <rect x="1" y="1" width="182" height="14" fill="none"/>
    </g>
    <g id="Rectangle_28" data-name="Rectangle 28" transform="translate(0 58)" fill="#2d91ff" stroke="#0e0e0e" stroke-width="2">
      <rect width="184" height="16" stroke="none"/>
      <rect x="1" y="1" width="182" height="14" fill="none"/>
    </g>
    <g id="Rectangle_29" data-name="Rectangle 29" transform="translate(0 44)" fill="#2d91ff" stroke="#0e0e0e" stroke-width="2">
      <rect width="184" height="16" stroke="none"/>
      <rect x="1" y="1" width="182" height="14" fill="none"/>
    </g>
    <g id="Rectangle_30" data-name="Rectangle 30" transform="translate(0 31)" fill="#2d91ff" stroke="#0e0e0e" stroke-width="2">
      <rect width="184" height="16" stroke="none"/>
      <rect x="1" y="1" width="182" height="14" fill="none"/>
    </g>
  </g>
</svg>
