<svg xmlns="http://www.w3.org/2000/svg" width="79.5" height="103" viewBox="0 0 79.5 103">
  <g id="Group_25" data-name="Group 25" transform="translate(-373.5 559) rotate(-90)">
    <g id="Group_6" data-name="Group 6">
      <g id="Polygon_1" data-name="Polygon 1" transform="translate(509 392) rotate(90)" fill="#217029">
        <path d="M 56.67691802978516 50.5 L 4.323085784912109 50.5 L 30.50000190734863 5.012243747711182 L 56.67691802978516 50.5 Z" stroke="none"/>
        <path d="M 30.50000190734863 10.02449417114258 L 8.646171569824219 48 L 52.35383224487305 48 L 30.50000190734863 10.02449417114258 M 30.50000190734863 0 L 61 53 L 3.814697265625e-06 53 L 30.50000190734863 0 Z" stroke="none" fill="#f6ca14"/>
      </g>
      <g id="Polygon_2" data-name="Polygon 2" transform="translate(506 453) rotate(-90)" fill="#217029">
        <path d="M 56.67691802978516 50.5 L 4.323085784912109 50.5 L 30.50000190734863 5.012243747711182 L 56.67691802978516 50.5 Z" stroke="none"/>
        <path d="M 30.50000190734863 10.02449417114258 L 8.646171569824219 48 L 52.35383224487305 48 L 30.50000190734863 10.02449417114258 M 30.50000190734863 0 L 61 53 L 3.814697265625e-06 53 L 30.50000190734863 0 Z" stroke="none" fill="#f6ca14"/>
      </g>
      <path id="Path_1" data-name="Path 1" d="M0,33.695V9.72" transform="translate(506.5 389.805)" fill="#217029" stroke="#f6ca14" stroke-width="4"/>
      <line id="Line_15" data-name="Line 15" x2="21" transform="translate(495.5 374.5)" fill="none" stroke="#f6ca14" stroke-width="2"/>
      <line id="Line_16" data-name="Line 16" x2="33" transform="translate(489.5 399.5)" fill="none" stroke="#f6ca14" stroke-width="2"/>
      <line id="Line_17" data-name="Line 17" x2="6" y2="25" transform="translate(516.5 374.5)" fill="none" stroke="#f6ca14" stroke-width="2"/>
      <line id="Line_18" data-name="Line 18" x1="6" y2="25" transform="translate(489.5 374.5)" fill="none" stroke="#f6ca14" stroke-width="2"/>
    </g>
  </g>
</svg>
