<svg xmlns="http://www.w3.org/2000/svg" width="279" height="303.551" viewBox="0 0 279 303.551">
  <g id="Group_67" data-name="Group 67" transform="translate(-1012 -3063)">
    <g id="Rectangle_50" data-name="Rectangle 50" transform="translate(1012 3137)" fill="#87aed5" stroke="#8ebad2" stroke-width="1">
      <rect width="279" height="84" rx="16" stroke="none"/>
      <rect x="0.5" y="0.5" width="278" height="83" rx="15.5" fill="none"/>
    </g>
    <g id="Rectangle_51" data-name="Rectangle 51" transform="translate(1075 3168)" fill="#87aed5" stroke="#87aed5" stroke-width="1">
      <rect width="150" height="145" rx="19" stroke="none"/>
      <rect x="0.5" y="0.5" width="149" height="144" rx="18.5" fill="none"/>
    </g>
    <g id="Ellipse_10" data-name="Ellipse 10" transform="translate(1040 3063)" fill="#d4d3d2" stroke="#e4e6e5" stroke-width="1">
      <ellipse cx="111.5" cy="116.5" rx="111.5" ry="116.5" stroke="none"/>
      <ellipse cx="111.5" cy="116.5" rx="111" ry="116" fill="none"/>
    </g>
    <g id="Ellipse_11" data-name="Ellipse 11" transform="translate(1056 3083)" fill="#353732" stroke="#353533" stroke-width="1">
      <circle cx="96" cy="96" r="96" stroke="none"/>
      <circle cx="96" cy="96" r="95.5" fill="none"/>
    </g>
    <g id="Rectangle_52" data-name="Rectangle 52" transform="translate(1130.798 3313)" fill="#c4c4c4">
      <path d="M0,0H38.4V50.519a3.029,3.029,0,0,1-3.032,3.032H3.032A3.029,3.029,0,0,1,0,50.519Z" stroke="none"/>
      <path d="M 35.3721809387207 52.54054260253906 C 35.65081024169922 52.54054260253906 35.91645812988281 52.4838752746582 36.15819549560547 52.38145065307617 C 36.39992904663086 52.27902984619141 36.61775970458984 52.13085556030273 36.80076217651367 51.94785690307617 C 36.9837646484375 51.76486206054688 37.13193130493164 51.54703140258789 37.23435592651367 51.30529022216797 C 37.33677291870117 51.06355285644531 37.39344787597656 50.79790496826172 37.39344787597656 50.5192756652832 L 37.39344787597656 1.010635852813721 L 1.010633707046509 1.010635852813721 L 1.010633707046509 50.5192756652832 C 1.010633707046509 50.79790496826172 1.067304968833923 51.06355285644531 1.169726371765137 51.30529022216797 C 1.27214777469635 51.54703140258789 1.420319318771362 51.76486206054688 1.603320002555847 51.94785690307617 C 1.786320447921753 52.13085556030273 2.004149913787842 52.27902984619141 2.245887041091919 52.38145065307617 C 2.487624406814575 52.4838752746582 2.75326943397522 52.54054260253906 3.031901121139526 52.54054260253906 L 35.3721809387207 52.54054260253906 M 35.3721809387207 53.55117797851562 L 3.031901121139526 53.55117797851562 C 2.613284111022949 53.55117797851562 2.214481592178345 53.46633911132812 1.851750135421753 53.31291580200195 C 1.489018797874451 53.15949249267578 1.162358283996582 52.9374885559082 0.8880249261856079 52.66315460205078 C 0.6136915683746338 52.38882446289062 0.3916853368282318 52.06216430664062 0.2382624447345734 51.69942855834961 C 0.08483954519033432 51.33670043945312 0 50.93789672851562 0 50.5192756652832 L 0 2.174984274461167e-06 L 38.40407943725586 2.174984274461167e-06 L 38.40407943725586 50.5192756652832 C 38.40407943725586 50.93789672851562 38.31924057006836 51.33670043945312 38.16581726074219 51.69942855834961 C 38.01239395141602 52.06216430664062 37.79038619995117 52.38882446289062 37.51605224609375 52.66315460205078 C 37.24171829223633 52.9374885559082 36.91505813598633 53.15949249267578 36.55233001708984 53.31291580200195 C 36.18959426879883 53.46633911132812 35.79079437255859 53.55117797851562 35.3721809387207 53.55117797851562 Z" stroke="none" fill="#c4c4c4"/>
    </g>
  </g>
</svg>
