<svg xmlns="http://www.w3.org/2000/svg" width="103" height="79.5" viewBox="0 0 103 79.5">
  <g id="Group_17" data-name="Group 17" transform="translate(-456 -373.5)">
    <g id="Group_6" data-name="Group 6">
      <g id="Polygon_1" data-name="Polygon 1" transform="translate(509 392) rotate(90)" fill="none">
        <path d="M30.5,0,61,53H0Z" stroke="none"/>
        <path d="M 30.50000190734863 10.02449417114258 L 8.646171569824219 48 L 52.35383224487305 48 L 30.50000190734863 10.02449417114258 M 30.50000190734863 0 L 61 53 L 3.814697265625e-06 53 L 30.50000190734863 0 Z" stroke="none" fill="#0e0e0e"/>
      </g>
      <g id="Polygon_2" data-name="Polygon 2" transform="translate(506 453) rotate(-90)" fill="none">
        <path d="M30.5,0,61,53H0Z" stroke="none"/>
        <path d="M 30.50000190734863 10.02449417114258 L 8.646171569824219 48 L 52.35383224487305 48 L 30.50000190734863 10.02449417114258 M 30.50000190734863 0 L 61 53 L 3.814697265625e-06 53 L 30.50000190734863 0 Z" stroke="none" fill="#0e0e0e"/>
      </g>
      <path id="Path_1" data-name="Path 1" d="M0,33.695V9.72" transform="translate(506.5 389.805)" fill="none" stroke="#0e0e0e" stroke-width="4"/>
      <line id="Line_15" data-name="Line 15" x2="21" transform="translate(495.5 374.5)" fill="none" stroke="#0e0e0e" stroke-width="2"/>
      <line id="Line_16" data-name="Line 16" x2="33" transform="translate(489.5 399.5)" fill="none" stroke="#0e0e0e" stroke-width="2"/>
      <line id="Line_17" data-name="Line 17" x2="6" y2="25" transform="translate(516.5 374.5)" fill="none" stroke="#0e0e0e" stroke-width="2"/>
      <line id="Line_18" data-name="Line 18" x1="6" y2="25" transform="translate(489.5 374.5)" fill="none" stroke="#0e0e0e" stroke-width="2"/>
    </g>
  </g>
</svg>
