<svg xmlns="http://www.w3.org/2000/svg" width="996" height="59" viewBox="0 0 996 59">
  <g id="Group_76" data-name="Group 76" transform="translate(0 12)">
    <g id="Rectangle_45" data-name="Rectangle 45" transform="translate(0 39) rotate(-90)" fill="#e5e5e5" stroke="#2b2a29" stroke-width="7">
      <path d="M19.5,0h0A19.5,19.5,0,0,1,39,19.5V994a0,0,0,0,1,0,0H0a0,0,0,0,1,0,0V19.5A19.5,19.5,0,0,1,19.5,0Z" stroke="none"/>
      <path d="M19.5,3.5h0a16,16,0,0,1,16,16v971a0,0,0,0,1,0,0H3.5a0,0,0,0,1,0,0V19.5A16,16,0,0,1,19.5,3.5Z" fill="none"/>
    </g>
    <g id="Rectangle_11" data-name="Rectangle 11" transform="translate(967 47) rotate(-90)" fill="#e5e5e5" stroke="#2b2a29" stroke-width="7">
      <rect width="59" height="29" stroke="none"/>
      <rect x="3.5" y="3.5" width="52" height="22" fill="none"/>
    </g>
    <line id="Line_28" data-name="Line 28" x2="915.345" y2="2" transform="translate(34.155 17.5)" fill="none" stroke="#fff" stroke-width="5"/>
  </g>
</svg>
