<svg xmlns="http://www.w3.org/2000/svg" width="103" height="108" viewBox="0 0 103 108">
  <g id="Group_23" data-name="Group 23" transform="translate(-456 -345)">
    <g id="Group_6" data-name="Group 6">
      <g id="Polygon_1" data-name="Polygon 1" transform="translate(509 392) rotate(90)" fill="#217029">
        <path d="M 56.67691802978516 50.5 L 4.323085784912109 50.5 L 30.50000190734863 5.012243747711182 L 56.67691802978516 50.5 Z" stroke="none"/>
        <path d="M 30.50000190734863 10.02449417114258 L 8.646171569824219 48 L 52.35383224487305 48 L 30.50000190734863 10.02449417114258 M 30.50000190734863 0 L 61 53 L 3.814697265625e-06 53 L 30.50000190734863 0 Z" stroke="none" fill="#0e0e0e"/>
      </g>
      <g id="Polygon_2" data-name="Polygon 2" transform="translate(506 453) rotate(-90)" fill="#217029">
        <path d="M 56.67691802978516 50.5 L 4.323085784912109 50.5 L 30.50000190734863 5.012243747711182 L 56.67691802978516 50.5 Z" stroke="none"/>
        <path d="M 30.50000190734863 10.02449417114258 L 8.646171569824219 48 L 52.35383224487305 48 L 30.50000190734863 10.02449417114258 M 30.50000190734863 0 L 61 53 L 3.814697265625e-06 53 L 30.50000190734863 0 Z" stroke="none" fill="#0e0e0e"/>
      </g>
      <text id="z" transform="translate(494 393)" fill="#0e0e0e" font-size="50" font-family="HelveticaNeue, Helvetica Neue"><tspan x="0" y="0">z</tspan></text>
      <path id="Path_1" data-name="Path 1" d="M0,33.695V9.72" transform="translate(507 389.805)" fill="#fff" stroke="#0e0e0e" stroke-width="4"/>
      <path id="Path_2" data-name="Path 2" d="M0,24.53V9.72" transform="translate(521.661 382.643) rotate(39)" fill="#fff" stroke="#0e0e0e" stroke-width="4"/>
    </g>
  </g>
</svg>
