<svg xmlns="http://www.w3.org/2000/svg" width="228" height="374" viewBox="0 0 228 374">
  <g id="Group_46" data-name="Group 46" transform="translate(-390 -1841)">
    <g id="Path_9" data-name="Path 9" transform="translate(437.033 1983)" fill="#217029">
      <path d="M 176.4674682617188 223.5 L 77.90505981445312 223.5 L 77.90505981445312 94.91729736328125 L 77.90505981445312 94.34617614746094 L 77.52520751953125 93.91964721679688 C 77.39767456054688 93.77647399902344 64.59626770019531 79.43770599365234 49.32394027709961 65.28794097900391 C 40.33150100708008 56.95647048950195 32.24594116210938 50.31161880493164 25.29179382324219 45.53788375854492 C 21.12555885314941 42.67791366577148 17.31388282775879 40.45946884155273 13.96261692047119 38.94417572021484 C 10.16923522949219 37.22891235351562 6.835146903991699 36.35923385620117 4.052970409393311 36.35923385620117 C 3.316002607345581 36.35923385620117 2.610019683837891 36.41962814331055 1.937992572784424 36.53972625732422 C 2.598690748214722 33.64880752563477 3.025027275085449 30.3369140625 3.208999633789062 26.65411758422852 C 3.403499603271484 22.76011848449707 3.329970359802246 18.43623542785645 2.990440845489502 13.80258846282959 C 2.5933518409729 8.383244514465332 1.934348940849304 3.868463516235352 1.546716451644897 1.5 L 176.4674682617188 1.5 L 176.4674682617188 223.5 Z M -4.083970069885254 50.32113647460938 C -4.253927707672119 50.23950958251953 -4.779007434844971 49.65468978881836 -4.91379451751709 48.36129379272461 C -5.047029495239258 47.08261871337891 -4.730764865875244 45.6709098815918 -4.023294448852539 44.38623428344727 C -3.486743211746216 43.41196823120117 -2.745424270629883 42.52248001098633 -1.80754554271698 41.72547912597656 C -1.976036787033081 44.95577239990234 -2.415123701095581 46.94569396972656 -2.796441555023193 48.10952758789062 C -3.336864233016968 49.75901794433594 -3.919808149337769 50.25575637817383 -4.083970069885254 50.32113647460938 Z" stroke="none"/>
      <path d="M 3.298721313476562 3 C 3.682174682617188 5.573257446289062 4.168075561523438 9.348159790039062 4.486434936523438 13.69296264648438 C 4.8304443359375 18.38775634765625 4.904693603515625 22.773681640625 4.707122802734375 26.72897338867188 C 4.560012817382812 29.67364501953125 4.260223388671875 32.39236450195312 3.8115234375 34.86117553710938 C 3.891754150390625 34.85986328125 3.972122192382812 34.85922241210938 4.052963256835938 34.85922241210938 C 9.660308837890625 34.85922241210938 16.88528442382812 37.94772338867188 26.14071655273438 44.30122375488281 C 33.15472412109375 49.11602783203125 41.29768371582031 55.80677795410156 50.34337615966797 64.18759155273438 C 65.66790771484375 78.38571166992188 78.51731109619141 92.77827453613281 78.64530944824219 92.9219970703125 L 79.405029296875 93.7750244140625 L 79.405029296875 222 L 174.9674377441406 222 L 174.9674377441406 3 L 3.298721313476562 3 M -0.236724853515625 0 L 177.9674377441406 0 L 177.9674377441406 225 L 76.405029296875 225 L 76.405029296875 94.91728210449219 C 76.405029296875 94.91728210449219 25.58757019042969 37.85923767089844 4.052963256835938 37.85923767089844 C 2.4486083984375 37.85923767089844 1.009490966796875 38.17515563964844 -0.236724853515625 38.85528564453125 C 4.379745483398438 24.14747619628906 -0.236724853515625 0 -0.236724853515625 0 Z M -0.236724853515625 38.85528564453125 C -0.2367095947265625 63.77397155761719 -14.20246887207031 46.477783203125 -0.236724853515625 38.85528564453125 Z" stroke="none" fill="#0e0e0e"/>
    </g>
    <line id="Line_29" data-name="Line 29" x2="53.911" y2="74.959" transform="translate(430.589 2024.541)" fill="none" stroke="#0e0e0e" stroke-width="3"/>
    <g id="Ellipse_9" data-name="Ellipse 9" transform="translate(390 2087)" fill="#217029" stroke="#0e0e0e" stroke-width="3">
      <ellipse cx="65" cy="64" rx="65" ry="64" stroke="none"/>
      <ellipse cx="65" cy="64" rx="63.5" ry="62.5" fill="none"/>
    </g>
    <g id="Rectangle_46" data-name="Rectangle 46" transform="translate(440 1945)" fill="#217029" stroke="#0e0e0e" stroke-width="3">
      <rect width="175" height="38" stroke="none"/>
      <rect x="1.5" y="1.5" width="172" height="35" fill="none"/>
    </g>
    <g id="Path_10" data-name="Path 10" transform="translate(441 1835)" fill="#217029">
      <path d="M 173.8281555175781 108.5 L 2.745967626571655 108.5 L 53.14799880981445 30.01614379882812 L 109.4064483642578 30.01614379882812 L 173.8281555175781 108.5 Z" stroke="none"/>
      <path d="M 53.96737670898438 31.51614379882812 L 5.491958618164062 107 L 170.6563262939453 107 L 108.6970901489258 31.51614379882812 L 53.96737670898438 31.51614379882812 M 52.32859802246094 28.51614379882812 L 110.1157989501953 28.51614379882812 L 177 110 L 0 110 L 52.32859802246094 28.51614379882812 Z" stroke="none" fill="#0e0e0e"/>
    </g>
    <g id="Rectangle_47" data-name="Rectangle 47" transform="translate(494 1841)" fill="#217029" stroke="#0e0e0e" stroke-width="3">
      <rect width="58" height="24" stroke="none"/>
      <rect x="1.5" y="1.5" width="55" height="21" fill="none"/>
    </g>
  </g>
</svg>
