<svg xmlns="http://www.w3.org/2000/svg" width="189.121" height="545.112" viewBox="0 0 189.121 545.112">
  <g id="Group_66" data-name="Group 66" transform="translate(-848.439 -848.439)">
    <g id="Path_8" data-name="Path 8" transform="translate(850 850)" fill="#81807f">
      <path d="M 175.5 531.0513305664062 L 106.8364181518555 531.0513305664062 L 59.92217254638672 473.9890747070312 L 1.5 401.17626953125 L 1.5 1.500034809112549 L 175.5 1.500034809112549 L 175.5 531.0513305664062 Z" stroke="none"/>
      <path d="M 3 3 L 3 400.6488647460938 L 61.08658599853516 473.0433654785156 L 107.5450592041016 529.55126953125 L 174 529.55126953125 L 174 3 L 3 3 M 0 0 L 177 0 L 177 532.55126953125 L 106.1277847290039 532.55126953125 L 58.75771331787109 474.9345703125 L 0 401.70361328125 L 0 0 Z" stroke="none" fill="#0e0e0e"/>
    </g>
    <g id="Path_7" data-name="Path 7" transform="translate(859 861)" fill="#a7a8a9">
      <path d="M 175.5 531.0513305664062 L 106.8364181518555 531.0513305664062 L 59.92217254638672 473.9890747070312 L 1.5 401.17626953125 L 1.5 1.500034809112549 L 175.5 1.500034809112549 L 175.5 531.0513305664062 Z" stroke="none"/>
      <path d="M 3 3 L 3 400.6488647460938 L 61.08658599853516 473.0433654785156 L 107.5450592041016 529.55126953125 L 174 529.55126953125 L 174 3 L 3 3 M 0 0 L 177 0 L 177 532.55126953125 L 106.1277847290039 532.55126953125 L 58.75771331787109 474.9345703125 L 0 401.70361328125 L 0 0 Z" stroke="none" fill="#0e0e0e"/>
    </g>
    <line id="Line_25" data-name="Line 25" x2="12" y2="12" transform="translate(849.5 851.5)" fill="none" stroke="#0e0e0e" stroke-width="3"/>
    <line id="Line_27" data-name="Line 27" x2="12" y2="12" transform="translate(1024.5 849.5)" fill="none" stroke="#0e0e0e" stroke-width="3"/>
    <text id="Caisse" transform="translate(881 953)" font-size="39" font-family="Poppins-Medium, Poppins" font-weight="500"><tspan x="0" y="0">Caisse</tspan></text>
    <text id="Jornaliaire" transform="translate(861.5 1000)" font-size="31" font-family="Poppins-Medium, Poppins" font-weight="500"><tspan x="0" y="0">Jornaliaire</tspan></text>
    <text id="_40m" data-name="40m" transform="translate(895 1183)" font-size="42" font-family="Poppins-Medium, Poppins" font-weight="500"><tspan x="0" y="0">40m</tspan></text>
    <text id="_3" data-name="3" transform="translate(986 1153)" font-size="33" font-family="Poppins-Medium, Poppins" font-weight="500"><tspan x="0" y="0">3</tspan></text>
  </g>
</svg>
